<svg xmlns="http://www.w3.org/2000/svg" viewBox="0 0 300 300"><defs><style>.cls-1,.cls-2{fill:#fff;}.cls-2{stroke:#363636;stroke-miterlimit:10;stroke-width:2px;}</style></defs><g id="Layer_2" data-name="Layer 2"><g id="glassware"><g id="chalice3"><path class="cls-1" d="M0,0V300H300V0ZM165.76,141.5c-2.13,2.13-9,8-9,8v12l3,5,.16,34.58-1.16,6.42s3.23,5.77,5,7c4.52,3.14,19,5.82,24.17,6.7,2.63.45,4.41,3.32,3.16,5.68-.33.62-2.33,1.62-2.33,1.62s-15,5-38.52,5h-.48c-23.52,0-38.52-5-38.52-5s-2-1-2.33-1.62c-1.25-2.36.53-5.23,3.16-5.68,5.14-.88,19.65-3.56,24.17-6.7,1.77-1.23,5-7,5-7l-1.16-6.42.16-34.58,3-5v-12s-6.87-5.87-9-8c-17-17-37-16-37-43,0-8,4-32,4-32h97.52s4,24,4,32C202.76,125.5,182.76,124.5,165.76,141.5Z"/><path class="cls-2" d="M165.76,141.5c17-17,37-16,37-43,0-8-4-32-4-32H101.24s-4,24-4,32c0,27,20,26,37,43,2.13,2.13,9,8,9,8v12l-3,5-.16,34.58,1.16,6.42s-3.23,5.77-5,7c-4.52,3.14-19,5.82-24.17,6.7-2.63.45-4.41,3.32-3.16,5.68.33.62,2.33,1.62,2.33,1.62s15,5,38.52,5h.48c23.52,0,38.52-5,38.52-5s2-1,2.33-1.62c1.25-2.36-.53-5.23-3.16-5.68-5.14-.88-19.65-3.56-24.17-6.7-1.77-1.23-5-7-5-7l1.16-6.42-.16-34.58-3-5v-12S163.63,143.63,165.76,141.5Zm-10.89,5.19a7.46,7.46,0,0,1-9.74,0c-2.2-1.91-5.52-4.82-6.89-6.19-17-17-37-15-37-42,0-5.72,2-19.53,3.2-27h91.12c1.17,7.47,3.2,21.28,3.2,27,0,27-20,25-37,42C160.39,141.87,157.07,144.78,154.87,146.69Z"/></g></g></g></svg>