<svg xmlns="http://www.w3.org/2000/svg" viewBox="0 0 300 300"><defs><style>.cls-1,.cls-2{fill:#fff;}.cls-2{stroke:#363636;stroke-miterlimit:10;stroke-width:2px;}</style></defs><g id="Layer_2" data-name="Layer 2"><g id="glassware"><g id="pilsner"><path class="cls-1" d="M0,0V300H300V0ZM164.3,231.57c1.51,5.52,14.26,9.73,12,15-1.41,3.29-13.56,4.26-26,4.36h-.54c-12.47-.1-24.62-1.07-26-4.36-2.26-5.27,10.49-9.48,12-15,3-11-9.56-39.67-12-69-4.06-48.64-1.89-104.63-1.55-112.55a1,1,0,0,1,1-1h53.7a1,1,0,0,1,1,1c.34,7.92,2.51,63.91-1.55,112.55C173.86,191.9,161.3,220.57,164.3,231.57Z"/><path class="cls-2" d="M164.3,231.57c-3-11,9.56-39.67,12-69,4.06-48.64,1.89-104.63,1.55-112.55a1,1,0,0,0-1-1h-53.7a1,1,0,0,0-1,1c-.34,7.92-2.51,63.91,1.55,112.55,2.44,29.33,15,58,12,69-1.51,5.52-14.26,9.73-12,15,1.41,3.29,13.56,4.26,26,4.36h.54c12.47-.1,24.62-1.07,26-4.36C178.56,241.3,165.81,237.09,164.3,231.57Zm-.31,13c-3.57,0-8.27,0-13.72,0h-.54c-5.13,0-9.43,0-12.72,0-2.62,0-4-1.12-2.2-3,2.9-3.11,6.1-7,6.89-9.91,3-11-9.56-39.67-12-69A779.31,779.31,0,0,1,128.15,64a1,1,0,0,1,1-.95h42.7a1,1,0,0,1,1,.95,779.31,779.31,0,0,1-1.55,98.55c-2.44,29.33-15,58-12,69,.79,2.86,4,6.8,6.89,9.92C168,243.41,166.62,244.53,164,244.52Z"/></g></g></g></svg>