<svg xmlns="http://www.w3.org/2000/svg" viewBox="0 0 300 300"><defs><style>.cls-1,.cls-2{fill:#fff;}.cls-2{stroke:#363636;stroke-miterlimit:10;stroke-width:2px;}</style></defs><g id="Layer_2" data-name="Layer 2"><g id="glassware"><path class="cls-1" d="M0,0V300H300V0ZM195.5,130.5c-3.84,23.19-9,89.28-9.86,101.16a2,2,0,0,1-2,1.84h-67.3a2,2,0,0,1-2-1.84c-.9-11.88-6-78-9.86-101.16-.71-4.31-4-9-4-17,0-10,2.66-13.45,3-18,.43-5.87-.17-21.31-.41-26.92a2,2,0,0,1,2-2.08h89.82a2,2,0,0,1,2,2.08c-.24,5.61-.84,21-.41,26.92.34,4.55,3,8,3,18C199.5,121.5,196.21,126.19,195.5,130.5Z"/><path class="cls-2" d="M196.5,95.5c-.43-5.87.17-21.31.41-26.92a2,2,0,0,0-2-2.08H105.09a2,2,0,0,0-2,2.08c.24,5.61.84,21,.41,26.92-.34,4.55-3,8-3,18,0,8,3.29,12.69,4,17,3.84,23.19,9,89.28,9.86,101.16a2,2,0,0,0,2,1.84h67.3a2,2,0,0,0,2-1.84c.9-11.88,6-78,9.86-101.16.71-4.31,4-9,4-17C199.5,103.5,196.84,100.05,196.5,95.5Zm-7,35c-3.34,23.19-7.79,77.28-8.57,89.16a1.85,1.85,0,0,1-1.73,1.84H120.77a1.85,1.85,0,0,1-1.73-1.84c-.78-11.88-5.23-66-8.57-89.16-.61-4.31-3.47-9-3.47-17,0-10,2.31-13.45,2.61-18,.37-5.87-.15-6.31-.36-11.92A1.89,1.89,0,0,1,111,81.5h78a1.89,1.89,0,0,1,1.74,2.08c-.21,5.61-.73,6-.36,11.92.3,4.55,2.61,8,2.61,18C193,121.5,190.14,126.19,189.53,130.5Z"/></g></g></svg>