<svg xmlns="http://www.w3.org/2000/svg" xmlns:xlink="http://www.w3.org/1999/xlink" viewBox="0 0 300 300"><defs><style>.cls-1,.cls-2{fill:none;}.cls-2{stroke:#231f20;stroke-width:0.3px;}.cls-3{fill:#231f20;}.cls-4{fill:url(#Stipple_Fine);}.cls-5{fill:#fff;stroke:#000;}.cls-5,.cls-6{stroke-miterlimit:10;stroke-width:2px;}.cls-6{stroke:#363636;fill:url(#Hatching_Double);}</style><pattern id="Stipple_Fine" data-name="Stipple Fine" width="72" height="72" patternUnits="userSpaceOnUse" viewBox="0 0 72 72"><rect class="cls-1" width="72" height="72"/><path class="cls-3" d="M56.43,72.69a.35.35,0,0,1-.26-.11.39.39,0,0,1-.11-.27.36.36,0,0,1,.11-.26.4.4,0,0,1,.53,0,.36.36,0,0,1,.11.26.39.39,0,0,1-.11.27A.37.37,0,0,1,56.43,72.69Z"/><path class="cls-3" d="M3.75,72.13A.36.36,0,0,1,3.48,72a.35.35,0,0,1-.11-.26.36.36,0,0,1,.11-.26.39.39,0,0,1,.53,0,.36.36,0,0,1,.11.26A.39.39,0,0,1,4,72,.36.36,0,0,1,3.75,72.13Z"/><path class="cls-3" d="M18.56,72.13a.36.36,0,0,1-.27-.12.36.36,0,0,1-.11-.26.34.34,0,0,1,.12-.26.38.38,0,0,1,.53,0,.4.4,0,0,1,.1.26.39.39,0,0,1-.1.27A.4.4,0,0,1,18.56,72.13Z"/><path class="cls-3" d="M40.31,72.31A.35.35,0,0,1,40,72.2a.34.34,0,0,1-.1-.26.35.35,0,0,1,.1-.26.39.39,0,0,1,.54,0,.38.38,0,0,1,.1.27.39.39,0,0,1-.11.27A.34.34,0,0,1,40.31,72.31Z"/><path class="cls-3" d="M12.93,69.88a.32.32,0,0,1-.26-.12.35.35,0,0,1-.11-.26.39.39,0,0,1,.11-.27.4.4,0,0,1,.53,0,.35.35,0,0,1,.11.26.39.39,0,0,1-.11.27A.37.37,0,0,1,12.93,69.88Z"/><path class="cls-3" d="M1.12,69.69a.39.39,0,0,1-.27-.11.42.42,0,0,1-.1-.26.39.39,0,0,1,.11-.27.4.4,0,0,1,.53,0,.39.39,0,0,1,.11.27.38.38,0,0,1-.11.26A.39.39,0,0,1,1.12,69.69Z"/><path class="cls-3" d="M10.5,68.38a.36.36,0,0,1-.27-.12.39.39,0,0,1-.11-.26.36.36,0,0,1,.11-.26.39.39,0,0,1,.53,0,.36.36,0,0,1,.11.26.39.39,0,0,1-.11.27A.36.36,0,0,1,10.5,68.38Z"/><path class="cls-3" d="M19.68,67.25a.38.38,0,0,1-.26-.11.36.36,0,0,1-.11-.26.37.37,0,0,1,.11-.27.38.38,0,0,1,.64.27.36.36,0,0,1-.11.26A.39.39,0,0,1,19.68,67.25Z"/><path class="cls-3" d="M3.75,72.13A.36.36,0,0,1,3.48,72a.39.39,0,0,1-.11-.26.36.36,0,0,1,.11-.26.4.4,0,0,1,.53,0,.33.33,0,0,1,.11.26A.39.39,0,0,1,4,72,.36.36,0,0,1,3.75,72.13Z"/><path class="cls-3" d="M7.12,65.75a.39.39,0,0,1-.27-.11.4.4,0,0,1-.1-.26.37.37,0,0,1,.11-.27.4.4,0,0,1,.53,0,.37.37,0,0,1,.11.27.36.36,0,0,1-.11.26A.39.39,0,0,1,7.12,65.75Z"/><path class="cls-3" d="M24.56,70.63a.36.36,0,0,1-.27-.12.34.34,0,0,1-.1-.26A.33.33,0,0,1,24.3,70a.39.39,0,0,1,.53,0,.36.36,0,0,1,.11.26.38.38,0,0,1-.38.38Z"/><path class="cls-3" d="M27,71.94a.34.34,0,0,1-.27-.12.33.33,0,0,1-.11-.25.34.34,0,0,1,.12-.27.38.38,0,0,1,.52,0,.35.35,0,0,1,.11.27.38.38,0,0,1-.11.26A.36.36,0,0,1,27,71.94Z"/><path class="cls-3" d="M29.06,67.63a.4.4,0,0,1-.27-.12.38.38,0,0,1-.1-.26A.36.36,0,0,1,28.8,67a.38.38,0,0,1,.53,0,.4.4,0,0,1,.1.26.38.38,0,0,1-.1.27A.39.39,0,0,1,29.06,67.63Z"/><path class="cls-3" d="M40.87,66.69a.36.36,0,0,1-.26-.11.37.37,0,0,1-.11-.27.36.36,0,0,1,.11-.26.39.39,0,0,1,.53,0,.38.38,0,0,1,.11.26.38.38,0,0,1-.38.38Z"/><path class="cls-3" d="M49.31,68a.39.39,0,0,1-.27-.11.41.41,0,0,1-.11-.26.4.4,0,0,1,.12-.27.38.38,0,0,1,.52,0,.36.36,0,0,1,.12.27.38.38,0,0,1-.11.26A.39.39,0,0,1,49.31,68Z"/><path class="cls-3" d="M35.06,66.13a.39.39,0,0,1-.27-.11.41.41,0,0,1-.1-.27.39.39,0,0,1,.11-.27.4.4,0,0,1,.53,0,.39.39,0,0,1,.11.26.4.4,0,0,1-.12.27A.35.35,0,0,1,35.06,66.13Z"/><path class="cls-3" d="M24.56,66.13a.36.36,0,0,1-.27-.12.34.34,0,0,1-.1-.26.39.39,0,0,1,.11-.27.4.4,0,0,1,.53,0,.38.38,0,0,1-.27.64Z"/><path class="cls-3" d="M15.18,66.13a.34.34,0,0,1-.26-.12.35.35,0,0,1-.11-.26.36.36,0,0,1,.11-.26.38.38,0,0,1,.53,0,.36.36,0,0,1,.11.26.38.38,0,0,1-.38.38Z"/><path class="cls-3" d="M43.87,63.5a.38.38,0,0,1-.26-.11.35.35,0,0,1-.11-.26.37.37,0,0,1,.11-.27.38.38,0,0,1,.64.27.32.32,0,0,1-.12.26A.35.35,0,0,1,43.87,63.5Z"/><path class="cls-3" d="M46.68,71.75a.38.38,0,0,1-.37-.37.38.38,0,1,1,.75,0,.36.36,0,0,1-.11.26A.37.37,0,0,1,46.68,71.75Z"/><path class="cls-3" d="M18.56,72.13a.36.36,0,0,1-.27-.12.39.39,0,0,1-.11-.26.34.34,0,0,1,.12-.26.38.38,0,0,1,.53,0,.4.4,0,0,1,.1.26.39.39,0,0,1-.11.27A.36.36,0,0,1,18.56,72.13Z"/><path class="cls-3" d="M32.43,70.82a.38.38,0,0,1-.26-.11.39.39,0,0,1-.11-.27.36.36,0,0,1,.11-.26.39.39,0,0,1,.53,0,.4.4,0,0,1,.11.27.38.38,0,0,1-.38.38Z"/><path class="cls-3" d="M40.31,72.32A.4.4,0,0,1,40,72.2a.38.38,0,0,1-.1-.26.37.37,0,0,1,.64-.26.38.38,0,0,1,.1.26.38.38,0,0,1-.37.38Z"/><path class="cls-3" d="M50.62,48.5a.38.38,0,0,1-.37-.37.38.38,0,1,1,.75,0,.35.35,0,0,1-.11.26A.39.39,0,0,1,50.62,48.5Z"/><path class="cls-3" d="M58.31,48.13A.36.36,0,0,1,58,48a.39.39,0,0,1-.11-.26.34.34,0,0,1,.12-.26.39.39,0,0,1,.53,0,.36.36,0,0,1,.11.26.4.4,0,0,1-.12.27A.36.36,0,0,1,58.31,48.13Z"/><path class="cls-3" d="M62.81,48.69a.39.39,0,0,1-.27-.11.38.38,0,0,1-.11-.26.39.39,0,0,1,.11-.27.4.4,0,0,1,.54,0,.39.39,0,0,1,.11.27.38.38,0,0,1-.11.26A.39.39,0,0,1,62.81,48.69Z"/><path class="cls-3" d="M66.93,71a.35.35,0,0,1-.26-.11.36.36,0,0,1-.11-.26.39.39,0,0,1,.11-.27.4.4,0,0,1,.53,0,.37.37,0,0,1,.11.27.36.36,0,0,1-.11.26A.37.37,0,0,1,66.93,71Z"/><path class="cls-3" d="M52.31,61.25a.39.39,0,0,1-.27-.11.36.36,0,0,1-.11-.26.39.39,0,0,1,.11-.27.4.4,0,0,1,.54,0,.38.38,0,0,1,.1.27.35.35,0,0,1-.1.26A.39.39,0,0,1,52.31,61.25Z"/><path class="cls-3" d="M70.5,55.25a.39.39,0,0,1-.27-.11.36.36,0,0,1-.11-.26.34.34,0,0,1,.12-.27.39.39,0,0,1,.53,0,.38.38,0,0,1,.1.26.38.38,0,0,1-.37.37Z"/><path class="cls-3" d="M71.06,68.38a.4.4,0,0,1-.27-.12.38.38,0,0,1-.1-.26.39.39,0,0,1,.11-.27.4.4,0,0,1,.53,0,.38.38,0,0,1-.27.64Z"/><path class="cls-3" d="M63.94,53.19a.37.37,0,0,1-.27-.11.35.35,0,0,1-.11-.26.38.38,0,0,1,.64-.27.37.37,0,0,1,.11.27.38.38,0,0,1-.37.37Z"/><path class="cls-3" d="M61.87,71.94a.39.39,0,0,1-.27-.11.4.4,0,0,1-.1-.26.39.39,0,0,1,.11-.27.4.4,0,0,1,.53,0,.39.39,0,0,1,.11.27.34.34,0,0,1-.12.26A.35.35,0,0,1,61.87,71.94Z"/><path class="cls-3" d="M53.62,52.82a.37.37,0,0,1-.26-.12.35.35,0,0,1-.11-.26.39.39,0,0,1,.11-.27.4.4,0,0,1,.53,0,.39.39,0,0,1,.11.27.4.4,0,0,1-.11.27A.44.44,0,0,1,53.62,52.82Z"/><path class="cls-3" d="M51.75,67.07a.4.4,0,0,1-.27-.12.35.35,0,0,1-.11-.26.4.4,0,0,1,.11-.27.39.39,0,0,1,.53,0,.36.36,0,0,1,.11.26A.39.39,0,0,1,52,67,.41.41,0,0,1,51.75,67.07Z"/><path class="cls-3" d="M57.37,55.44a.35.35,0,0,1-.26-.11.36.36,0,0,1-.11-.26.39.39,0,0,1,.11-.27.4.4,0,0,1,.53,0,.39.39,0,0,1,.11.27.38.38,0,0,1-.11.26A.39.39,0,0,1,57.37,55.44Z"/><path class="cls-3" d="M60.94,56.19a.37.37,0,0,1-.27-.11.36.36,0,0,1-.11-.26.35.35,0,0,1,.11-.27.4.4,0,0,1,.53,0,.37.37,0,0,1,.11.27.38.38,0,0,1-.11.26A.36.36,0,0,1,60.94,56.19Z"/><path class="cls-3" d="M56.43,69.69a.38.38,0,0,1-.37-.37.38.38,0,1,1,.75,0,.38.38,0,0,1-.11.26A.4.4,0,0,1,56.43,69.69Z"/><path class="cls-3" d="M61.31,63.5a.39.39,0,0,1-.27-.11.38.38,0,0,1-.11-.26.36.36,0,0,1,.12-.27.38.38,0,0,1,.52,0,.36.36,0,0,1,.12.27.38.38,0,0,1-.11.26A.39.39,0,0,1,61.31,63.5Z"/><path class="cls-3" d="M57.94,61.82a.38.38,0,0,1-.27-.12.36.36,0,0,1-.11-.26.4.4,0,0,1,.11-.27.38.38,0,0,1,.52,0,.37.37,0,0,1,.12.27.36.36,0,0,1-.11.26A.35.35,0,0,1,57.94,61.82Z"/><path class="cls-3" d="M67.12,65.19a.39.39,0,0,1-.27-.11.38.38,0,0,1-.1-.26.37.37,0,0,1,.11-.27.4.4,0,0,1,.53,0,.39.39,0,0,1,.11.27.34.34,0,0,1-.12.26A.35.35,0,0,1,67.12,65.19Z"/><path class="cls-3" d="M69.19,60.32a.38.38,0,0,1-.27-.12.35.35,0,0,1-.11-.26.37.37,0,0,1,.64-.26.35.35,0,0,1,.11.26.36.36,0,0,1-.12.27A.36.36,0,0,1,69.19,60.32Z"/><path class="cls-3" d="M65.06,59.19a.38.38,0,0,1-.38-.38.37.37,0,0,1,.12-.26.4.4,0,0,1,.53,0,.41.41,0,0,1,.11.26.38.38,0,0,1-.38.38Z"/><path class="cls-3" d="M1.69,56.94a.35.35,0,0,1-.27-.11.38.38,0,0,1-.11-.26.39.39,0,0,1,.11-.27.4.4,0,0,1,.53,0,.39.39,0,0,1,.11.27.38.38,0,0,1-.37.37Z"/><path class="cls-3" d="M29.25,62.75a.38.38,0,0,1-.38-.37.36.36,0,0,1,.12-.27.38.38,0,0,1,.52,0,.35.35,0,0,1,.11.27.39.39,0,0,1-.11.27A.4.4,0,0,1,29.25,62.75Z"/><path class="cls-3" d="M15.56,51.69a.39.39,0,0,1-.27-.11.36.36,0,0,1-.11-.26.36.36,0,0,1,.12-.27.38.38,0,0,1,.52,0,.39.39,0,0,1,.12.28.38.38,0,0,1-.11.26A.39.39,0,0,1,15.56,51.69Z"/><path class="cls-3" d="M4.87,61.25a.38.38,0,0,1-.37-.37.39.39,0,0,1,.11-.27.4.4,0,0,1,.53,0,.39.39,0,0,1,.11.27.36.36,0,0,1-.11.26A.39.39,0,0,1,4.87,61.25Z"/><path class="cls-3" d="M18.75,54.5a.39.39,0,0,1-.27-.11.35.35,0,0,1-.1-.26.43.43,0,0,1,.1-.27.4.4,0,0,1,.53,0,.39.39,0,0,1,.11.27.38.38,0,0,1-.11.26A.36.36,0,0,1,18.75,54.5Z"/><path class="cls-3" d="M9.75,51.13A.36.36,0,0,1,9.48,51a.35.35,0,0,1-.11-.26.4.4,0,0,1,.12-.27.38.38,0,0,1,.52,0,.36.36,0,0,1,.12.26A.4.4,0,0,1,10,51,.36.36,0,0,1,9.75,51.13Z"/><path class="cls-3" d="M18.56,48.5a.39.39,0,0,1-.27-.11.38.38,0,0,1-.11-.26.36.36,0,0,1,.12-.27.4.4,0,0,1,.53,0,.43.43,0,0,1,.1.27.4.4,0,0,1-.1.26A.4.4,0,0,1,18.56,48.5Z"/><path class="cls-3" d="M21.37,56.75a.39.39,0,0,1-.27-.11.42.42,0,0,1-.1-.26.39.39,0,0,1,.11-.27.4.4,0,0,1,.53,0,.39.39,0,0,1,.11.27.36.36,0,0,1-.11.26A.39.39,0,0,1,21.37,56.75Z"/><path class="cls-3" d="M20.62,60.32a.38.38,0,0,1-.37-.38.36.36,0,0,1,.11-.26.38.38,0,0,1,.53,0,.36.36,0,0,1,.11.26.4.4,0,0,1-.11.27A.39.39,0,0,1,20.62,60.32Z"/><path class="cls-3" d="M7.12,55.82a.38.38,0,0,1-.37-.38.37.37,0,0,1,.64-.26.35.35,0,0,1,.11.26.4.4,0,0,1-.11.27A.39.39,0,0,1,7.12,55.82Z"/><path class="cls-3" d="M13.31,60.69a.39.39,0,0,1-.27-.11.41.41,0,0,1-.11-.27.34.34,0,0,1,.12-.26.4.4,0,0,1,.53,0,.36.36,0,0,1,.11.26.38.38,0,0,1-.12.27A.35.35,0,0,1,13.31,60.69Z"/><path class="cls-3" d="M15,57.31a.39.39,0,0,1-.27-.11.36.36,0,0,1-.11-.26.4.4,0,0,1,.12-.27.37.37,0,0,1,.52,0,.35.35,0,0,1,.11.26.36.36,0,0,1-.11.27A.4.4,0,0,1,15,57.31Z"/><path class="cls-3" d="M30.18,50.19a.38.38,0,0,1-.26-.11.37.37,0,0,1-.11-.27.36.36,0,0,1,.11-.26.39.39,0,0,1,.53,0,.38.38,0,0,1,.11.26.38.38,0,0,1-.38.38Z"/><path class="cls-3" d="M36,57.69a.38.38,0,0,1-.38-.37.36.36,0,0,1,.12-.27.37.37,0,0,1,.52,0,.37.37,0,0,1,.11.27.35.35,0,0,1-.11.26A.36.36,0,0,1,36,57.69Z"/><path class="cls-3" d="M42.37,59.75a.38.38,0,0,1-.37-.37.37.37,0,0,1,.11-.27.38.38,0,0,1,.64.27.38.38,0,0,1-.11.26A.39.39,0,0,1,42.37,59.75Z"/><path class="cls-3" d="M46.68,53a.42.42,0,0,1-.26-.1.4.4,0,0,1-.11-.27.38.38,0,1,1,.75,0,.36.36,0,0,1-.11.26A.39.39,0,0,1,46.68,53Z"/><path class="cls-3" d="M46.87,59a.36.36,0,0,1-.26-.11.35.35,0,0,1-.11-.26.37.37,0,0,1,.11-.27.39.39,0,0,1,.53,0,.37.37,0,0,1,.11.27.32.32,0,0,1-.12.26A.35.35,0,0,1,46.87,59Z"/><path class="cls-3" d="M28.68,52.63a.38.38,0,0,1-.26-.11.37.37,0,0,1-.11-.27.36.36,0,0,1,.11-.26A.39.39,0,0,1,29,52a.36.36,0,0,1,.11.26.38.38,0,0,1-.38.38Z"/><path class="cls-3" d="M30.75,57.88a.38.38,0,0,1-.38-.38.36.36,0,0,1,.11-.26.39.39,0,0,1,.53,0,.38.38,0,0,1-.26.64Z"/><path class="cls-3" d="M26.06,56a.36.36,0,0,1-.26-.11.35.35,0,0,1-.11-.26.38.38,0,0,1,.1-.27.4.4,0,0,1,.54,0,.39.39,0,0,1,.11.27.36.36,0,0,1-.12.26A.35.35,0,0,1,26.06,56Z"/><path class="cls-3" d="M39.18,55.63a.36.36,0,0,1-.26-.11.39.39,0,0,1-.11-.27.36.36,0,0,1,.11-.26.39.39,0,0,1,.53,0,.36.36,0,0,1,.11.26.39.39,0,0,1-.11.27A.37.37,0,0,1,39.18,55.63Z"/><path class="cls-3" d="M42.93,49.82a.39.39,0,0,1-.26-.12.36.36,0,0,1-.11-.26.4.4,0,0,1,.11-.27.39.39,0,0,1,.53,0,.39.39,0,0,1,0,.54A.44.44,0,0,1,42.93,49.82Z"/><path class="cls-3" d="M44.06,55.63a.36.36,0,0,1-.26-.11.35.35,0,0,1-.11-.27.35.35,0,0,1,.1-.26.37.37,0,0,1,.64.26.43.43,0,0,1-.1.27A.4.4,0,0,1,44.06,55.63Z"/><path class="cls-3" d="M26.43,47.94a.38.38,0,0,1-.26-.11.36.36,0,0,1-.11-.26.37.37,0,0,1,.11-.27.38.38,0,0,1,.64.27.38.38,0,0,1-.11.26A.39.39,0,0,1,26.43,47.94Z"/><path class="cls-3" d="M49.31,52.44a.38.38,0,0,1-.38-.37.4.4,0,0,1,.12-.28.41.41,0,0,1,.53,0,.41.41,0,0,1,.11.27.37.37,0,0,1-.12.26A.35.35,0,0,1,49.31,52.44Z"/><path class="cls-3" d="M35.62,48.5a.38.38,0,0,1-.37-.37.37.37,0,0,1,.11-.27.4.4,0,0,1,.53,0,.39.39,0,0,1,.11.27.38.38,0,0,1-.11.26A.39.39,0,0,1,35.62,48.5Z"/><path class="cls-3" d="M36,52.44a.38.38,0,0,1-.38-.37.36.36,0,0,1,.12-.27.37.37,0,0,1,.52,0,.37.37,0,0,1,.11.27.35.35,0,0,1-.11.26A.36.36,0,0,1,36,52.44Z"/><path class="cls-3" d="M2.81,49.07A.4.4,0,0,1,2.54,49a.35.35,0,0,1-.11-.26.4.4,0,0,1,.12-.27.38.38,0,1,1,.26.65Z"/><path class="cls-3" d="M5.25,48.13A.38.38,0,0,1,5,48a.35.35,0,0,1-.11-.26A.36.36,0,0,1,5,47.49a.39.39,0,0,1,.53,0,.37.37,0,0,1,.12.26.4.4,0,0,1-.12.27A.36.36,0,0,1,5.25,48.13Z"/><path class="cls-3" d="M3.37,2.19A.38.38,0,0,1,3,1.82a.38.38,0,1,1,.75,0,.36.36,0,0,1-.11.26A.39.39,0,0,1,3.37,2.19Z"/><path class="cls-3" d="M10.12,6.5a.39.39,0,0,1-.27-.11.38.38,0,0,1-.1-.26.39.39,0,0,1,.11-.27.4.4,0,0,1,.53,0,.39.39,0,0,1,.11.27.32.32,0,0,1-.12.26A.35.35,0,0,1,10.12,6.5Z"/><path class="cls-3" d="M4.12,6.69a.39.39,0,0,1-.27-.11.4.4,0,0,1-.1-.26.37.37,0,0,1,.11-.27.4.4,0,0,1,.53,0,.37.37,0,0,1,.11.27.36.36,0,0,1-.11.26A.39.39,0,0,1,4.12,6.69Z"/><path class="cls-3" d="M22.5,4.07A.4.4,0,0,1,22.23,4a.39.39,0,0,1-.11-.26.4.4,0,0,1,.11-.27.4.4,0,0,1,.53,0,.36.36,0,0,1,.11.27.39.39,0,0,1-.11.27A.41.41,0,0,1,22.5,4.07Z"/><path class="cls-3" d="M31.12,1.44a.38.38,0,0,1-.26-.11.39.39,0,0,1-.11-.27A.36.36,0,0,1,30.86.8a.39.39,0,0,1,.53,0,.38.38,0,0,1,.11.26.38.38,0,0,1-.38.38Z"/><path class="cls-3" d="M46.87,5a.38.38,0,0,1-.26-.11.36.36,0,0,1-.11-.26.39.39,0,0,1,.11-.27.37.37,0,0,1,.52,0,.36.36,0,0,1,.12.27.36.36,0,0,1-.11.26A.39.39,0,0,1,46.87,5Z"/><path class="cls-3" d="M33.75,5.57a.4.4,0,0,1-.27-.12.39.39,0,0,1-.11-.26.4.4,0,0,1,.12-.27.37.37,0,0,1,.52,0,.35.35,0,0,1,.11.26.39.39,0,0,1-.11.27A.41.41,0,0,1,33.75,5.57Z"/><path class="cls-3" d="M22.87,7.44a.36.36,0,0,1-.37-.38.36.36,0,0,1,.11-.26.39.39,0,0,1,.53,0,.38.38,0,0,1,.11.26.34.34,0,0,1-.12.27A.35.35,0,0,1,22.87,7.44Z"/><path class="cls-3" d="M13.31,2.75A.39.39,0,0,1,13,2.64a.36.36,0,0,1-.11-.26.36.36,0,0,1,.12-.27.4.4,0,0,1,.53,0,.39.39,0,0,1,.11.27.36.36,0,0,1-.11.26A.39.39,0,0,1,13.31,2.75Z"/><path class="cls-3" d="M15.94,5.56a.35.35,0,0,1-.27-.11.35.35,0,0,1-.11-.26.37.37,0,0,1,.64-.26.35.35,0,0,1,.11.26.39.39,0,0,1-.11.27A.42.42,0,0,1,15.94,5.56Z"/><path class="cls-3" d="M41.25,7.63A.39.39,0,0,1,41,7.52a.4.4,0,0,1-.11-.27A.38.38,0,0,1,41,7a.39.39,0,0,1,.54,0,.4.4,0,0,1,.1.26.38.38,0,0,1-.37.38Z"/><path class="cls-3" d="M7.5,3.88a.36.36,0,0,1-.27-.12.39.39,0,0,1-.11-.26.36.36,0,0,1,.11-.26.38.38,0,0,1,.53,0,.36.36,0,0,1,.11.26.39.39,0,0,1-.11.27A.36.36,0,0,1,7.5,3.88Z"/><path class="cls-3" d="M29.62,7.81a.33.33,0,0,1-.26-.11.35.35,0,0,1-.11-.26.4.4,0,0,1,.11-.27.39.39,0,0,1,.53,0,.39.39,0,0,1,0,.54A.38.38,0,0,1,29.62,7.81Z"/><path class="cls-3" d="M10.69,9.13A.34.34,0,0,1,10.42,9a.35.35,0,0,1-.11-.26.36.36,0,0,1,.11-.26.38.38,0,0,1,.53,0,.36.36,0,0,1,.11.26A.39.39,0,0,1,11,9,.38.38,0,0,1,10.69,9.13Z"/><path class="cls-3" d="M34.5,9.32a.4.4,0,0,1-.27-.12.39.39,0,0,1-.11-.26.4.4,0,0,1,.12-.27.38.38,0,0,1,.52,0,.35.35,0,0,1,.11.26.39.39,0,0,1-.11.27A.41.41,0,0,1,34.5,9.32Z"/><path class="cls-3" d="M16.68,1.07A.37.37,0,0,1,16.42,1a.35.35,0,0,1-.11-.26.4.4,0,0,1,.11-.27.4.4,0,0,1,.53,0,.4.4,0,0,1,.11.27A.39.39,0,0,1,17,1,.44.44,0,0,1,16.68,1.07Z"/><path class="cls-3" d="M36.93,1.63a.36.36,0,0,1-.26-.11.39.39,0,0,1-.11-.27A.36.36,0,0,1,36.67,1a.39.39,0,0,1,.53,0,.36.36,0,0,1,.11.26.4.4,0,0,1-.11.27A.37.37,0,0,1,36.93,1.63Z"/><path class="cls-3" d="M41.81,3.69a.39.39,0,0,1-.27-.11.35.35,0,0,1-.1-.26.36.36,0,0,1,.1-.27.4.4,0,0,1,.54,0,.36.36,0,0,1,.1.27.4.4,0,0,1-.1.26A.39.39,0,0,1,41.81,3.69Z"/><path class="cls-3" d="M45,8.75a.39.39,0,0,1-.27-.11.36.36,0,0,1-.11-.26.38.38,0,1,1,.75,0,.38.38,0,0,1-.37.37Z"/><path class="cls-3" d="M12.93,24.88a.34.34,0,0,1-.26-.12.35.35,0,0,1-.11-.26.36.36,0,0,1,.11-.26.38.38,0,0,1,.53,0,.36.36,0,0,1,.11.26.38.38,0,0,1-.38.38Z"/><path class="cls-3" d="M1.12,24.69a.39.39,0,0,1-.27-.11.42.42,0,0,1-.1-.26.39.39,0,0,1,.11-.27.39.39,0,0,1,.53,0,.39.39,0,0,1,.11.27.38.38,0,0,1-.11.26A.39.39,0,0,1,1.12,24.69Z"/><path class="cls-3" d="M5.44,30.69a.37.37,0,0,1-.27-.11.38.38,0,0,1-.11-.26.39.39,0,0,1,.11-.27.4.4,0,0,1,.53,0,.39.39,0,0,1,.11.27.38.38,0,0,1-.37.37Z"/><path class="cls-3" d="M3.37,37.07A.38.38,0,0,1,3.11,37a.39.39,0,0,1,0-.54.4.4,0,0,1,.53,0,.38.38,0,0,1-.27.65Z"/><path class="cls-3" d="M10.12,41.38a.36.36,0,0,1-.27-.12.38.38,0,0,1-.1-.26.39.39,0,0,1,.11-.27.4.4,0,0,1,.53,0,.35.35,0,0,1,.11.26.38.38,0,0,1-.38.38Z"/><path class="cls-3" d="M4.12,41.57a.4.4,0,0,1-.27-.12.38.38,0,0,1-.1-.26.4.4,0,0,1,.11-.27.4.4,0,0,1,.53,0,.4.4,0,0,1,.11.27.36.36,0,0,1-.12.27A.39.39,0,0,1,4.12,41.57Z"/><path class="cls-3" d="M10.5,23.38a.36.36,0,0,1-.27-.12.35.35,0,0,1-.11-.26.36.36,0,0,1,.11-.26.38.38,0,0,1,.53,0,.33.33,0,0,1,.11.26.39.39,0,0,1-.11.27A.36.36,0,0,1,10.5,23.38Z"/><path class="cls-3" d="M19.68,22.25a.36.36,0,0,1-.26-.11.35.35,0,0,1-.11-.26.38.38,0,1,1,.75,0,.36.36,0,0,1-.11.26A.37.37,0,0,1,19.68,22.25Z"/><path class="cls-3" d="M3.75,27.13A.36.36,0,0,1,3.48,27a.35.35,0,0,1-.11-.26.4.4,0,0,1,.12-.27.38.38,0,0,1,.52,0A.37.37,0,0,1,4,27,.36.36,0,0,1,3.75,27.13Z"/><path class="cls-3" d="M7.12,20.75a.39.39,0,0,1-.27-.11.4.4,0,0,1-.1-.26.39.39,0,0,1,.11-.27.4.4,0,0,1,.53,0,.39.39,0,0,1,.11.27.36.36,0,0,1-.11.26A.39.39,0,0,1,7.12,20.75Z"/><path class="cls-3" d="M24.56,25.63a.36.36,0,0,1-.27-.12.38.38,0,0,1-.1-.26A.36.36,0,0,1,24.3,25a.39.39,0,0,1,.53,0,.36.36,0,0,1,.11.26.4.4,0,0,1-.12.27A.35.35,0,0,1,24.56,25.63Z"/><path class="cls-3" d="M27,26.94a.34.34,0,0,1-.27-.12.33.33,0,0,1-.11-.25.4.4,0,0,1,.12-.28.4.4,0,0,1,.52,0,.37.37,0,0,1,.11.27.38.38,0,0,1-.11.26A.36.36,0,0,1,27,26.94Z"/><path class="cls-3" d="M7.5,33.88a.36.36,0,0,1-.27-.12.35.35,0,0,1-.11-.26.4.4,0,0,1,.11-.27.4.4,0,0,1,.53,0,.4.4,0,0,1,.11.27.39.39,0,0,1-.11.27A.36.36,0,0,1,7.5,33.88Z"/><path class="cls-3" d="M22.5,38.94a.39.39,0,0,1-.27-.11.39.39,0,0,1-.11-.27.36.36,0,0,1,.11-.26.4.4,0,0,1,.53,0,.38.38,0,0,1,.11.26.37.37,0,0,1-.11.27A.36.36,0,0,1,22.5,38.94Z"/><path class="cls-3" d="M31.12,36.31a.35.35,0,0,1-.26-.1.39.39,0,0,1-.11-.27.36.36,0,0,1,.11-.26.39.39,0,0,1,.53,0,.4.4,0,0,1,.11.27.39.39,0,0,1-.11.27A.38.38,0,0,1,31.12,36.31Z"/><path class="cls-3" d="M29.06,22.63a.36.36,0,0,1-.27-.12.38.38,0,0,1-.1-.26A.36.36,0,0,1,28.8,22a.4.4,0,0,1,.53,0,.35.35,0,0,1,.1.26.38.38,0,0,1-.1.27A.39.39,0,0,1,29.06,22.63Z"/><path class="cls-3" d="M40.87,21.69a.36.36,0,0,1-.26-.11.35.35,0,0,1-.11-.27.35.35,0,0,1,.11-.26.39.39,0,0,1,.53,0,.36.36,0,0,1,.11.26.34.34,0,0,1-.12.27A.35.35,0,0,1,40.87,21.69Z"/><path class="cls-3" d="M26.81,33.69a.36.36,0,0,1-.27-.12.35.35,0,0,1-.1-.26.36.36,0,0,1,.11-.26.4.4,0,0,1,.53,0,.38.38,0,0,1,.11.26.36.36,0,0,1-.12.27A.35.35,0,0,1,26.81,33.69Z"/><path class="cls-3" d="M46.87,39.88a.36.36,0,0,1-.26-.11.39.39,0,0,1-.11-.27.36.36,0,0,1,.11-.26.39.39,0,0,1,.53,0,.36.36,0,0,1,.11.26.38.38,0,0,1-.38.38Z"/><path class="cls-3" d="M33.75,40.44a.39.39,0,0,1-.27-.11.36.36,0,0,1,0-.53.38.38,0,0,1,.52,0,.35.35,0,0,1,.11.27.38.38,0,0,1-.11.26A.36.36,0,0,1,33.75,40.44Z"/><path class="cls-3" d="M22.87,42.32a.4.4,0,0,1-.27-.12.38.38,0,0,1-.1-.26.37.37,0,0,1,.64-.26.35.35,0,0,1,.11.26.38.38,0,0,1-.38.38Z"/><path class="cls-3" d="M13.31,37.63a.36.36,0,0,1-.27-.12.39.39,0,0,1-.11-.26.34.34,0,0,1,.12-.26.39.39,0,0,1,.53,0,.36.36,0,0,1,.11.26.4.4,0,0,1-.12.27A.35.35,0,0,1,13.31,37.63Z"/><path class="cls-3" d="M15.94,40.44a.37.37,0,0,1-.27-.11.38.38,0,0,1-.11-.26.39.39,0,0,1,.11-.27.4.4,0,0,1,.53,0,.39.39,0,0,1,.11.27.38.38,0,0,1-.37.37Z"/><path class="cls-3" d="M38.75,42.88a.38.38,0,0,1-.38-.38.36.36,0,0,1,.11-.26.39.39,0,0,1,.53,0,.36.36,0,0,1,.11.26.39.39,0,0,1-.11.27A.36.36,0,0,1,38.75,42.88Z"/><path class="cls-3" d="M48.93,33.32a.39.39,0,0,1-.26-.12.35.35,0,0,1-.11-.26.36.36,0,0,1,.12-.27.37.37,0,0,1,.52,0,.35.35,0,0,1,.11.26.39.39,0,0,1-.11.27A.44.44,0,0,1,48.93,33.32Z"/><path class="cls-3" d="M30.18,31.25a.38.38,0,0,1-.26-.11.36.36,0,0,1-.11-.26.38.38,0,1,1,.75,0,.36.36,0,0,1-.11.26A.37.37,0,0,1,30.18,31.25Z"/><path class="cls-3" d="M49.31,23a.38.38,0,0,1-.38-.37.38.38,0,0,1,.12-.27.4.4,0,0,1,.53,0,.41.41,0,0,1,.11.27.36.36,0,0,1-.12.26A.36.36,0,0,1,49.31,23Z"/><path class="cls-3" d="M35.06,21.13a.4.4,0,0,1-.27-.11.43.43,0,0,1-.1-.27.39.39,0,0,1,.11-.27.4.4,0,0,1,.53,0,.39.39,0,0,1,.11.26.4.4,0,0,1-.12.27A.36.36,0,0,1,35.06,21.13Z"/><path class="cls-3" d="M7.5,38.75a.39.39,0,0,1-.27-.11.36.36,0,0,1-.11-.26.39.39,0,0,1,.11-.27.4.4,0,0,1,.53,0,.39.39,0,0,1,.11.27.33.33,0,0,1-.11.26A.36.36,0,0,1,7.5,38.75Z"/><path class="cls-3" d="M24.56,21.13a.36.36,0,0,1-.27-.12.34.34,0,0,1-.1-.26.35.35,0,0,1,.1-.26.4.4,0,0,1,.54,0,.36.36,0,0,1,.11.26.4.4,0,0,1-.11.27A.39.39,0,0,1,24.56,21.13Z"/><path class="cls-3" d="M15.18,21.13a.32.32,0,0,1-.26-.12.35.35,0,0,1-.11-.26.36.36,0,0,1,.11-.26.38.38,0,0,1,.53,0,.36.36,0,0,1,.11.26.39.39,0,0,1-.11.27A.37.37,0,0,1,15.18,21.13Z"/><path class="cls-3" d="M29.62,42.69a.38.38,0,0,1-.26-.11.35.35,0,0,1-.11-.27.36.36,0,0,1,.11-.26.39.39,0,0,1,.53,0,.38.38,0,0,1,.11.26.34.34,0,0,1-.12.27A.35.35,0,0,1,29.62,42.69Z"/><path class="cls-3" d="M10.69,44a.35.35,0,0,1-.27-.11.36.36,0,0,1-.11-.26.39.39,0,0,1,.11-.27.4.4,0,0,1,.53,0,.39.39,0,0,1,.11.27.36.36,0,0,1-.11.26A.38.38,0,0,1,10.69,44Z"/><path class="cls-3" d="M43.87,18.5a.38.38,0,0,1-.26-.11.35.35,0,0,1-.11-.26.37.37,0,0,1,.11-.27.38.38,0,0,1,.64.27.32.32,0,0,1-.12.26A.35.35,0,0,1,43.87,18.5Z"/><path class="cls-3" d="M34.5,44.19a.39.39,0,0,1-.27-.11.36.36,0,0,1-.11-.26.37.37,0,0,1,.11-.27.38.38,0,0,1,.64.27.38.38,0,0,1-.11.26A.36.36,0,0,1,34.5,44.19Z"/><path class="cls-3" d="M44.75,25.38a.36.36,0,0,1-.27-.12.39.39,0,0,1-.11-.26.36.36,0,0,1,.11-.26.38.38,0,0,1,.53,0,.34.34,0,0,1,.12.26.4.4,0,0,1-.12.27A.36.36,0,0,1,44.75,25.38Z"/><path class="cls-3" d="M14.62,30.32a.4.4,0,0,1-.27-.12.38.38,0,0,1-.1-.26.4.4,0,0,1,.11-.27.4.4,0,0,1,.53,0,.39.39,0,0,1,0,.54A.39.39,0,0,1,14.62,30.32Z"/><path class="cls-3" d="M10.69,30.69a.35.35,0,0,1-.27-.11.36.36,0,0,1-.11-.26.39.39,0,0,1,.11-.27.4.4,0,0,1,.53,0,.39.39,0,0,1,.11.27.36.36,0,0,1-.11.26A.38.38,0,0,1,10.69,30.69Z"/><path class="cls-3" d="M20.81,32.94a.39.39,0,0,1-.27-.11.39.39,0,0,1-.11-.27.34.34,0,0,1,.12-.26.4.4,0,0,1,.53,0,.38.38,0,0,1-.27.64Z"/><path class="cls-3" d="M21.75,29.56a.39.39,0,0,1-.27-.11.35.35,0,0,1-.11-.26.4.4,0,0,1,.12-.27.37.37,0,0,1,.52,0,.35.35,0,0,1,.11.26.39.39,0,0,1-.11.27A.35.35,0,0,1,21.75,29.56Z"/><path class="cls-3" d="M18.56,27.13a.36.36,0,0,1-.27-.12.35.35,0,0,1-.11-.26.34.34,0,0,1,.12-.26.38.38,0,0,1,.53,0,.4.4,0,0,1,.1.26.43.43,0,0,1-.1.27A.4.4,0,0,1,18.56,27.13Z"/><path class="cls-3" d="M16.68,35.94a.36.36,0,0,1-.26-.11.37.37,0,0,1-.11-.27.38.38,0,0,1,.11-.26.39.39,0,0,1,.53,0,.38.38,0,0,1,.11.26.37.37,0,0,1-.11.27A.39.39,0,0,1,16.68,35.94Z"/><path class="cls-3" d="M45.93,30.32a.39.39,0,0,1-.26-.12.35.35,0,0,1-.11-.26.36.36,0,0,1,.12-.27.37.37,0,0,1,.52,0,.35.35,0,0,1,.11.26.39.39,0,0,1-.11.27A.44.44,0,0,1,45.93,30.32Z"/><path class="cls-3" d="M32.43,25.82a.38.38,0,0,1-.26-.11.37.37,0,1,1,.26.11Z"/><path class="cls-3" d="M38.62,30.69a.38.38,0,0,1-.26-.11.37.37,0,0,1-.11-.27.36.36,0,0,1,.11-.26.39.39,0,0,1,.53,0,.38.38,0,0,1,.11.26.38.38,0,0,1-.38.38Z"/><path class="cls-3" d="M40.31,27.32a.4.4,0,0,1-.27-.11.39.39,0,0,1-.1-.27.38.38,0,0,1,.1-.27.4.4,0,0,1,.54,0,.43.43,0,0,1,.1.27.39.39,0,0,1-.11.27A.36.36,0,0,1,40.31,27.32Z"/><path class="cls-3" d="M36.93,36.5a.38.38,0,0,1-.26-.11.35.35,0,0,1-.11-.26.37.37,0,0,1,.11-.27.4.4,0,0,1,.53,0,.37.37,0,0,1,.11.27.35.35,0,0,1-.11.26A.39.39,0,0,1,36.93,36.5Z"/><path class="cls-3" d="M41.81,38.57a.38.38,0,0,1-.37-.38.39.39,0,0,1,.11-.27.41.41,0,0,1,.53,0,.43.43,0,0,1,.1.27.39.39,0,0,1-.1.27A.4.4,0,0,1,41.81,38.57Z"/><path class="cls-3" d="M42.93,34.44a.38.38,0,0,1-.26-.11.35.35,0,0,1-.11-.26.37.37,0,0,1,.11-.27.39.39,0,0,1,.53,0,.37.37,0,0,1,.11.27.35.35,0,0,1-.11.26A.39.39,0,0,1,42.93,34.44Z"/><path class="cls-3" d="M45,43.63a.39.39,0,0,1-.27-.11.44.44,0,0,1-.11-.27.4.4,0,0,1,.12-.27.38.38,0,0,1,.52,0,.35.35,0,0,1,.11.26.39.39,0,0,1-.11.27A.36.36,0,0,1,45,43.63Z"/><path class="cls-3" d="M49.87,43.44a.38.38,0,0,1-.26-.11.35.35,0,0,1-.11-.26.35.35,0,0,1,.11-.27.39.39,0,0,1,.53,0,.37.37,0,0,1,.11.27.32.32,0,0,1-.12.26A.35.35,0,0,1,49.87,43.44Z"/><path class="cls-3" d="M54.56,45.32a.4.4,0,0,1-.27-.12.39.39,0,0,1-.11-.26.37.37,0,0,1,.12-.27.4.4,0,0,1,.53,0,.36.36,0,0,1,.11.26.4.4,0,0,1-.12.27A.39.39,0,0,1,54.56,45.32Z"/><path class="cls-3" d="M55.5,20.19a.39.39,0,0,1-.27-.11.38.38,0,0,1-.11-.26.38.38,0,1,1,.75,0,.34.34,0,0,1-.11.26A.36.36,0,0,1,55.5,20.19Z"/><path class="cls-3" d="M53.81,38.75a.37.37,0,0,1-.27-.64.4.4,0,0,1,.53,0,.35.35,0,0,1,0,.53A.36.36,0,0,1,53.81,38.75Z"/><path class="cls-3" d="M60.37,45.69a.39.39,0,0,1-.27-.11.43.43,0,0,1-.1-.27.36.36,0,0,1,.11-.26.39.39,0,0,1,.53,0,.36.36,0,0,1,.11.26.38.38,0,0,1-.38.38Z"/><path class="cls-3" d="M55.31,32a.39.39,0,0,1-.27-.11.36.36,0,0,1-.11-.26.36.36,0,0,1,.12-.27.38.38,0,0,1,.52,0,.36.36,0,0,1,.12.27.36.36,0,0,1-.11.26A.4.4,0,0,1,55.31,32Z"/><path class="cls-3" d="M61.31,27.69a.35.35,0,0,1-.26-.11.35.35,0,0,1-.12-.26.39.39,0,0,1,.11-.27.4.4,0,0,1,.54,0,.39.39,0,0,1,.11.27.38.38,0,0,1-.11.26A.4.4,0,0,1,61.31,27.69Z"/><path class="cls-3" d="M66,44.38a.4.4,0,0,1-.27-.12.35.35,0,0,1-.11-.26.4.4,0,0,1,.12-.27.37.37,0,0,1,.52,0,.35.35,0,0,1,.11.26.39.39,0,0,1-.11.27A.36.36,0,0,1,66,44.38Z"/><path class="cls-3" d="M72.19,45.5a.35.35,0,0,1-.27-.11.36.36,0,0,1-.11-.26.37.37,0,0,1,.11-.27.4.4,0,0,1,.53,0,.39.39,0,0,1,.11.27.38.38,0,0,1-.37.37Z"/><path class="cls-3" d="M67.69,29.75a.35.35,0,0,1-.27-.11.36.36,0,0,1-.11-.26.37.37,0,0,1,.11-.27.39.39,0,0,1,.53,0,.33.33,0,0,1,.11.26.38.38,0,0,1-.11.26A.35.35,0,0,1,67.69,29.75Z"/><path class="cls-3" d="M72,23a.39.39,0,0,1-.27-.11.37.37,0,0,1,.53-.53.37.37,0,0,1,.11.27.38.38,0,0,1-.11.26A.36.36,0,0,1,72,23Z"/><path class="cls-3" d="M72.19,29a.35.35,0,0,1-.27-.11.36.36,0,0,1-.11-.26.33.33,0,0,1,.12-.27.37.37,0,0,1,.63.27.38.38,0,0,1-.37.37Z"/><path class="cls-3" d="M72.19,39.88a.36.36,0,0,1-.27-.12.35.35,0,0,1-.11-.26.36.36,0,0,1,.12-.27.38.38,0,0,1,.52,0,.35.35,0,0,1,.11.26.39.39,0,0,1-.11.27A.36.36,0,0,1,72.19,39.88Z"/><path class="cls-3" d="M54,22.63a.36.36,0,0,1-.27-.12.36.36,0,0,1-.11-.26.4.4,0,0,1,.12-.27.37.37,0,0,1,.52,0,.35.35,0,0,1,.11.26.4.4,0,0,1-.11.27A.36.36,0,0,1,54,22.63Z"/><path class="cls-3" d="M52.87,13.44a.35.35,0,0,1-.26-.11.36.36,0,0,1-.11-.26.37.37,0,0,1,.11-.27.38.38,0,0,1,.64.27.38.38,0,0,1-.11.26A.39.39,0,0,1,52.87,13.44Z"/><path class="cls-3" d="M50.81,34.82a.36.36,0,0,1-.26-.11.35.35,0,0,1-.11-.27.39.39,0,0,1,.1-.27.4.4,0,0,1,.54,0,.35.35,0,0,1,.1.26.38.38,0,0,1-.1.27A.4.4,0,0,1,50.81,34.82Z"/><path class="cls-3" d="M58.75,30.88a.36.36,0,0,1-.27-.12.39.39,0,0,1-.11-.26.36.36,0,0,1,.12-.27.39.39,0,0,1,.64.27.4.4,0,0,1-.12.27A.36.36,0,0,1,58.75,30.88Z"/><path class="cls-3" d="M51.37,26a.39.39,0,0,1-.27-.11.38.38,0,0,1-.1-.26.39.39,0,0,1,.11-.27.4.4,0,0,1,.53,0,.39.39,0,0,1,.11.27.32.32,0,0,1-.12.26A.36.36,0,0,1,51.37,26Z"/><path class="cls-3" d="M56.25,8.57A.4.4,0,0,1,56,8.45a.39.39,0,0,1-.11-.26A.36.36,0,0,1,56,7.92a.39.39,0,0,1,.53,0,.38.38,0,0,1,.1.26.38.38,0,0,1-.37.38Z"/><path class="cls-3" d="M57.56,6.13A.39.39,0,0,1,57.29,6a.4.4,0,0,1-.11-.27.36.36,0,0,1,.11-.26.39.39,0,0,1,.54,0,.35.35,0,0,1,.1.26.38.38,0,0,1-.1.27A.39.39,0,0,1,57.56,6.13Z"/><path class="cls-3" d="M64.5,25.63a.38.38,0,0,1-.27-.12.34.34,0,0,1-.1-.26.35.35,0,0,1,.1-.26.39.39,0,0,1,.53,0,.36.36,0,0,1,.11.27.39.39,0,0,1-.11.27A.36.36,0,0,1,64.5,25.63Z"/><path class="cls-3" d="M69.56,10.63a.4.4,0,0,1-.27-.12.39.39,0,0,1-.11-.26.36.36,0,0,1,.11-.26.39.39,0,0,1,.54,0,.35.35,0,0,1,.1.26.37.37,0,0,1-.11.27A.36.36,0,0,1,69.56,10.63Z"/><path class="cls-3" d="M66.93,2a.36.36,0,0,1-.26-.11.35.35,0,0,1-.11-.26.39.39,0,0,1,.11-.27.4.4,0,0,1,.53,0,.39.39,0,0,1,.11.27.35.35,0,0,1-.11.26A.39.39,0,0,1,66.93,2Z"/><path class="cls-3" d="M53.25,4.07A.39.39,0,0,1,53,4a.4.4,0,0,1-.11-.27A.36.36,0,0,1,53,3.43a.37.37,0,0,1,.64.26.33.33,0,0,1-.11.26A.34.34,0,0,1,53.25,4.07Z"/><path class="cls-3" d="M64.31,6.31A.39.39,0,0,1,64,6.2a.35.35,0,0,1-.11-.26A.4.4,0,0,1,64,5.67a.4.4,0,0,1,.53,0,.36.36,0,0,1,.11.27.43.43,0,0,1-.1.27A.38.38,0,0,1,64.31,6.31Z"/><path class="cls-3" d="M68.25,19.81A.39.39,0,0,1,68,19.7a.36.36,0,0,1-.11-.26.36.36,0,0,1,.12-.27.37.37,0,0,1,.52,0,.35.35,0,0,1,.11.26.39.39,0,0,1-.11.27A.38.38,0,0,1,68.25,19.81Z"/><path class="cls-3" d="M71.06,17.19a.39.39,0,0,1-.27-.11.42.42,0,0,1-.1-.26.37.37,0,0,1,.11-.27.4.4,0,0,1,.53,0,.41.41,0,0,1,.11.27.38.38,0,0,1-.11.26A.39.39,0,0,1,71.06,17.19Z"/><path class="cls-3" d="M61.87,2.94a.39.39,0,0,1-.27-.11.42.42,0,0,1-.1-.26.39.39,0,0,1,.11-.27.4.4,0,0,1,.53,0,.39.39,0,0,1,.11.27.38.38,0,0,1-.11.26A.39.39,0,0,1,61.87,2.94Z"/><path class="cls-3" d="M69.37,25.63a.36.36,0,0,1-.27-.12.38.38,0,0,1-.1-.26.36.36,0,0,1,.11-.26.39.39,0,0,1,.53,0,.36.36,0,0,1,.11.26.36.36,0,0,1-.12.27A.35.35,0,0,1,69.37,25.63Z"/><path class="cls-3" d="M51.75,8.57a.4.4,0,0,1-.27-.12.35.35,0,0,1-.11-.26.4.4,0,0,1,.11-.27.38.38,0,0,1,.53,0,.36.36,0,0,1,.11.26.39.39,0,0,1-.11.27A.41.41,0,0,1,51.75,8.57Z"/><path class="cls-3" d="M51.75,17.94a.39.39,0,0,1-.27-.11.35.35,0,0,1-.11-.26.34.34,0,0,1,.12-.27.37.37,0,0,1,.52,0,.37.37,0,0,1,.11.27.35.35,0,0,1-.11.26A.36.36,0,0,1,51.75,17.94Z"/><path class="cls-3" d="M65.62,41.94a.36.36,0,0,1-.26-.11.38.38,0,0,1-.11-.26.37.37,0,0,1,.11-.27.39.39,0,0,1,.53,0,.35.35,0,0,1,.11.27.38.38,0,0,1-.11.26A.39.39,0,0,1,65.62,41.94Z"/><path class="cls-3" d="M63.37,34.07A.4.4,0,0,1,63.1,34a.38.38,0,0,1-.1-.26.36.36,0,0,1,.11-.26.39.39,0,0,1,.53,0,.4.4,0,0,1,.11.27.36.36,0,0,1-.12.27A.39.39,0,0,1,63.37,34.07Z"/><path class="cls-3" d="M59.81,40.07a.4.4,0,0,1-.27-.12.39.39,0,0,1-.11-.26.4.4,0,0,1,.12-.27.38.38,0,0,1,.64.27.4.4,0,0,1-.12.27A.36.36,0,0,1,59.81,40.07Z"/><path class="cls-3" d="M68.44,35.75a.35.35,0,0,1-.27-.11.36.36,0,0,1-.11-.26.37.37,0,0,1,.11-.27.4.4,0,0,1,.53,0,.39.39,0,0,1,.11.27.38.38,0,0,1-.37.37Z"/><path class="cls-3" d="M60.94,18.5a.35.35,0,0,1-.27-.11.36.36,0,0,1-.11-.26.38.38,0,1,1,.75,0,.38.38,0,0,1-.37.37Z"/><path class="cls-3" d="M61.31,22.44a.36.36,0,0,1-.27-.12.34.34,0,0,1-.11-.25.36.36,0,0,1,.12-.27.4.4,0,0,1,.53,0,.39.39,0,0,1,.11.27.36.36,0,0,1-.12.26A.35.35,0,0,1,61.31,22.44Z"/><path class="cls-3" d="M63.56,12.32a.44.44,0,0,1-.27-.11.39.39,0,0,1-.11-.27.36.36,0,0,1,.12-.27.39.39,0,0,1,.53,0,.35.35,0,0,1,.11.26.39.39,0,0,1-.11.27A.4.4,0,0,1,63.56,12.32Z"/><path class="cls-3" d="M60.19,11.38a.33.33,0,0,1-.27-.12.35.35,0,0,1-.11-.26.36.36,0,0,1,.11-.26.38.38,0,0,1,.53,0,.36.36,0,0,1,.11.26.39.39,0,0,1-.11.27A.36.36,0,0,1,60.19,11.38Z"/><path class="cls-3" d="M57.75,14.57a.4.4,0,0,1-.27-.12.35.35,0,0,1-.11-.26.4.4,0,0,1,.12-.27.38.38,0,0,1,.52,0,.35.35,0,0,1,.11.26.36.36,0,0,1-.11.26A.37.37,0,0,1,57.75,14.57Z"/><path class="cls-3" d="M66.56,16.44a.39.39,0,0,1-.27-.11.42.42,0,0,1-.1-.26.35.35,0,0,1,.11-.27.38.38,0,0,1,.64.27.38.38,0,0,1-.11.26A.4.4,0,0,1,66.56,16.44Z"/><path class="cls-3" d="M56.43.69a.35.35,0,0,1-.26-.11.39.39,0,0,1-.11-.27.36.36,0,0,1,.11-.26.4.4,0,0,1,.53,0,.36.36,0,0,1,.11.26.39.39,0,0,1-.11.27A.37.37,0,0,1,56.43.69Z"/><path class="cls-3" d="M45.75,47.19a.39.39,0,0,1-.27-.11.36.36,0,0,1-.11-.26.36.36,0,0,1,.12-.27.37.37,0,0,1,.52.53A.4.4,0,0,1,45.75,47.19Z"/><path class="cls-3" d="M41.25,46.44a.4.4,0,0,1-.27-.11.39.39,0,0,1-.11-.27A.38.38,0,0,1,41,45.8a.39.39,0,0,1,.54,0,.42.42,0,0,1,.1.26.39.39,0,0,1-.11.27A.35.35,0,0,1,41.25,46.44Z"/><path class="cls-3" d="M9.75,12.32a.4.4,0,0,1-.27-.12.36.36,0,0,1-.11-.26.4.4,0,0,1,.11-.27.4.4,0,0,1,.53,0,.42.42,0,0,1,.12.27.37.37,0,0,1-.12.26A.34.34,0,0,1,9.75,12.32Z"/><path class="cls-3" d="M18.19,13.63a.34.34,0,0,1-.27-.12.35.35,0,0,1-.11-.26.36.36,0,0,1,.11-.26.39.39,0,0,1,.53,0,.36.36,0,0,1,.11.26.39.39,0,0,1-.11.27A.38.38,0,0,1,18.19,13.63Z"/><path class="cls-3" d="M3.94,11.75a.35.35,0,0,1-.27-.11.36.36,0,0,1-.11-.26.39.39,0,0,1,.11-.27.4.4,0,0,1,.53,0,.39.39,0,0,1,.11.27.36.36,0,0,1-.11.26A.38.38,0,0,1,3.94,11.75Z"/><path class="cls-3" d="M15.56,17.38a.36.36,0,0,1-.27-.12.35.35,0,0,1-.11-.26.38.38,0,0,1,.65-.26.38.38,0,0,1-.27.64Z"/><path class="cls-3" d="M1.31,16.44A.39.39,0,0,1,1,16.33a.36.36,0,0,1,0-.53.38.38,0,0,1,.53,0,.35.35,0,0,1,.11.26.36.36,0,0,1-.11.26A.39.39,0,0,1,1.31,16.44Z"/><path class="cls-3" d="M9.19,17.94a.37.37,0,0,1-.27-.11.38.38,0,0,1-.11-.26.39.39,0,0,1,.11-.27.4.4,0,0,1,.53,0,.39.39,0,0,1,.11.27.38.38,0,0,1-.37.37Z"/><path class="cls-3" d="M24.37,10.82a.41.41,0,0,1-.26-.11.4.4,0,0,1-.11-.27.38.38,0,1,1,.75,0,.36.36,0,0,1-.11.26A.4.4,0,0,1,24.37,10.82Z"/><path class="cls-3" d="M30.18,18.32a.38.38,0,0,1-.26-.11.4.4,0,0,1-.11-.27.39.39,0,0,1,.11-.27.4.4,0,0,1,.53,0,.39.39,0,0,1,.11.27.36.36,0,0,1-.11.26A.4.4,0,0,1,30.18,18.32Z"/><path class="cls-3" d="M40.87,13.63a.36.36,0,0,1-.26-.11.39.39,0,0,1,0-.54.4.4,0,0,1,.53,0,.35.35,0,0,1,.11.26.36.36,0,0,1-.12.27A.35.35,0,0,1,40.87,13.63Z"/><path class="cls-3" d="M24.25,14.88a.36.36,0,0,1-.27-.12.34.34,0,0,1-.1-.26.37.37,0,0,1,.63-.26.35.35,0,0,1,.11.26.39.39,0,0,1-.11.27A.36.36,0,0,1,24.25,14.88Z"/><path class="cls-3" d="M20.25,16.63a.38.38,0,0,1-.38-.38A.4.4,0,0,1,20,16a.38.38,0,0,1,.52,0,.35.35,0,0,1,.11.26.39.39,0,0,1-.11.27A.36.36,0,0,1,20.25,16.63Z"/><path class="cls-3" d="M33.37,16.25a.38.38,0,0,1-.37-.37.38.38,0,1,1,.75,0,.38.38,0,0,1-.11.26A.39.39,0,0,1,33.37,16.25Z"/><path class="cls-3" d="M37.12,10.44a.38.38,0,0,1-.26-.11.36.36,0,0,1-.11-.26.35.35,0,0,1,.11-.27.39.39,0,0,1,.53,0,.37.37,0,0,1,.11.27.38.38,0,0,1-.11.26A.4.4,0,0,1,37.12,10.44Z"/><path class="cls-3" d="M38.25,16.25a.39.39,0,0,1-.27-.11.36.36,0,0,1-.11-.26.38.38,0,1,1,.75,0,.38.38,0,0,1-.37.37Z"/><path class="cls-3" d="M43.5,13.07a.38.38,0,1,1,.37-.38.36.36,0,0,1-.11.26A.34.34,0,0,1,43.5,13.07Z"/><path class="cls-3" d="M30.18,13.07a.38.38,0,0,1-.26-.11.38.38,0,1,1,.53,0A.44.44,0,0,1,30.18,13.07Z"/><path class="cls-3" d="M14.81,44.57a.4.4,0,0,1-.27-.12.36.36,0,0,1-.11-.26.37.37,0,0,1,.12-.27.39.39,0,0,1,.53,0,.36.36,0,0,1,.11.26.38.38,0,0,1-.38.38Z"/><path class="cls-3" d="M3.75.13A.36.36,0,0,1,3.48,0a.35.35,0,0,1-.11-.26.36.36,0,0,1,.11-.26A.39.39,0,0,1,4-.51a.36.36,0,0,1,.11.26A.39.39,0,0,1,4,0,.36.36,0,0,1,3.75.13Z"/><path class="cls-3" d="M18.56.13A.36.36,0,0,1,18.29,0a.36.36,0,0,1-.11-.26.34.34,0,0,1,.12-.26.38.38,0,0,1,.53,0,.4.4,0,0,1,.1.26.39.39,0,0,1-.1.27A.4.4,0,0,1,18.56.13Z"/><path class="cls-3" d="M40.31.31A.35.35,0,0,1,40,.2a.34.34,0,0,1-.1-.26A.35.35,0,0,1,40-.32a.39.39,0,0,1,.54,0,.38.38,0,0,1,.1.27.39.39,0,0,1-.11.27A.34.34,0,0,1,40.31.31Z"/><path class="cls-3" d="M56.43,72.69a.38.38,0,0,1-.37-.37.37.37,0,0,1,.11-.27.4.4,0,0,1,.53,0,.37.37,0,0,1,.11.27.35.35,0,0,1-.11.26A.39.39,0,0,1,56.43,72.69Z"/><path class="cls-3" d="M.19,45.5a.35.35,0,0,1-.27-.11.36.36,0,0,1-.11-.26.37.37,0,0,1,.11-.27.4.4,0,0,1,.53,0,.39.39,0,0,1,.11.27.36.36,0,0,1-.11.26A.36.36,0,0,1,.19,45.5Z"/><path class="cls-3" d="M0,23a.39.39,0,0,1-.27-.11.38.38,0,0,1-.11-.26.38.38,0,0,1,.12-.27.38.38,0,0,1,.52,0,.37.37,0,0,1,.11.27.38.38,0,0,1-.11.26A.36.36,0,0,1,0,23Z"/><path class="cls-3" d="M.19,29a.35.35,0,0,1-.27-.11.36.36,0,0,1-.11-.26.33.33,0,0,1,.12-.27.38.38,0,0,1,.52,0,.39.39,0,0,1,.11.27.36.36,0,0,1-.11.26A.36.36,0,0,1,.19,29Z"/><path class="cls-3" d="M.19,39.88a.36.36,0,0,1-.27-.12.35.35,0,0,1-.11-.26.36.36,0,0,1,.12-.27.38.38,0,0,1,.52,0,.35.35,0,0,1,.11.26.39.39,0,0,1-.11.27A.36.36,0,0,1,.19,39.88Z"/><path class="cls-3" d="M3.75.13A.36.36,0,0,1,3.48,0a.39.39,0,0,1-.11-.26.36.36,0,0,1,.11-.26A.4.4,0,0,1,4-.51a.33.33,0,0,1,.11.26A.39.39,0,0,1,4,0,.36.36,0,0,1,3.75.13Z"/><path class="cls-3" d="M18.56.13A.36.36,0,0,1,18.29,0a.39.39,0,0,1-.11-.26.34.34,0,0,1,.12-.26.38.38,0,0,1,.53,0,.4.4,0,0,1,.1.26.39.39,0,0,1-.11.27A.36.36,0,0,1,18.56.13Z"/><path class="cls-3" d="M40.31.32A.4.4,0,0,1,40,.2a.38.38,0,0,1-.1-.26.39.39,0,0,1,.11-.27.39.39,0,0,1,.53,0,.38.38,0,0,1,.1.26.39.39,0,0,1-.11.27A.39.39,0,0,1,40.31.32Z"/><path class="cls-3" d="M56.43.69a.35.35,0,0,1-.26-.11.35.35,0,0,1-.11-.26.37.37,0,0,1,.11-.27.4.4,0,0,1,.53,0,.37.37,0,0,1,.11.27.35.35,0,0,1-.11.26A.39.39,0,0,1,56.43.69Z"/></pattern><pattern id="Hatching_Double" data-name="Hatching Double" width="72" height="72" patternUnits="userSpaceOnUse" viewBox="0 0 72 72"><rect class="cls-1" width="72" height="72"/><line class="cls-2" x1="63.7" y1="76.7" x2="67.18" y2="70.62"/><line class="cls-2" x1="65.44" y1="69.63" x2="61.96" y2="75.7"/><line class="cls-2" x1="49" y1="77.5" x2="46.62" y2="70.92"/><line class="cls-2" x1="44.74" y1="71.6" x2="47.12" y2="78.18"/><line class="cls-2" x1="36.43" y1="75.84" x2="38.15" y2="69.05"/><line class="cls-2" x1="36.21" y1="68.56" x2="34.49" y2="75.35"/><line class="cls-2" x1="14.87" y1="75.31" x2="16.78" y2="68.58"/><line class="cls-2" x1="14.85" y1="68.03" x2="12.95" y2="74.77"/><line class="cls-2" x1="8.79" y1="74.93" x2="6.77" y2="68.22"/><line class="cls-2" x1="4.85" y1="68.8" x2="6.87" y2="75.5"/><line class="cls-2" x1="51.02" y1="69.29" x2="55.45" y2="74.71"/><line class="cls-2" x1="57" y1="73.44" x2="52.57" y2="68.03"/><line class="cls-2" x1="71.73" y1="26.3" x2="78.25" y2="23.75"/><line class="cls-2" x1="-0.27" y1="26.3" x2="6.25" y2="23.75"/><line class="cls-2" x1="4.19" y1="40.15" x2="1.63" y2="46.66"/><line class="cls-2" x1="3.49" y1="47.39" x2="6.05" y2="40.88"/><line class="cls-2" x1="69.21" y1="5.66" x2="75.38" y2="8.98"/><line class="cls-2" x1="76.32" y1="7.22" x2="70.16" y2="3.9"/><line class="cls-2" x1="69.26" y1="20.09" x2="74.56" y2="15.52"/><line class="cls-2" x1="73.25" y1="14" x2="67.95" y2="18.58"/><line class="cls-2" x1="71.73" y1="26.3" x2="78.25" y2="23.75"/><line class="cls-2" x1="77.52" y1="21.89" x2="71" y2="24.44"/><line class="cls-2" x1="68.93" y1="34.91" x2="75.75" y2="36.45"/><line class="cls-2" x1="76.2" y1="34.5" x2="69.37" y2="32.96"/><line class="cls-2" x1="68.96" y1="56.28" x2="75.75" y2="58"/><line class="cls-2" x1="76.24" y1="56.06" x2="69.46" y2="54.34"/><line class="cls-2" x1="70" y1="66.25" x2="76.65" y2="64.06"/><line class="cls-2" x1="76.02" y1="62.16" x2="69.37" y2="64.35"/><line class="cls-2" x1="63.7" y1="4.7" x2="67.18" y2="-1.38"/><line class="cls-2" x1="65.44" y1="-2.37" x2="61.96" y2="3.7"/><line class="cls-2" x1="49" y1="5.5" x2="46.62" y2="-1.08"/><line class="cls-2" x1="44.74" y1="-0.4" x2="47.12" y2="6.18"/><line class="cls-2" x1="36.43" y1="3.84" x2="38.15" y2="-2.95"/><line class="cls-2" x1="36.21" y1="-3.44" x2="34.49" y2="3.35"/><line class="cls-2" x1="30.79" y1="3.68" x2="24.34" y2="0.95"/><line class="cls-2" x1="23.56" y1="2.79" x2="30" y2="5.53"/><line class="cls-2" x1="14.87" y1="3.31" x2="16.78" y2="-3.42"/><line class="cls-2" x1="14.85" y1="-3.97" x2="12.95" y2="2.77"/><line class="cls-2" x1="8.79" y1="2.93" x2="6.77" y2="-3.78"/><line class="cls-2" x1="4.85" y1="-3.2" x2="6.87" y2="3.5"/><line class="cls-2" x1="65.44" y1="69.63" x2="61.96" y2="75.7"/><line class="cls-2" x1="63.7" y1="76.7" x2="67.18" y2="70.62"/><line class="cls-2" x1="51.02" y1="69.29" x2="55.45" y2="74.71"/><line class="cls-2" x1="57" y1="73.44" x2="52.57" y2="68.03"/><line class="cls-2" x1="44.74" y1="71.6" x2="47.12" y2="78.18"/><line class="cls-2" x1="49" y1="77.5" x2="46.62" y2="70.92"/><line class="cls-2" x1="36.21" y1="68.56" x2="34.49" y2="75.35"/><line class="cls-2" x1="36.43" y1="75.84" x2="38.15" y2="69.05"/><line class="cls-2" x1="14.85" y1="68.03" x2="12.95" y2="74.77"/><line class="cls-2" x1="14.87" y1="75.31" x2="16.78" y2="68.58"/><line class="cls-2" x1="4.85" y1="68.8" x2="6.87" y2="75.5"/><line class="cls-2" x1="8.79" y1="74.93" x2="6.77" y2="68.22"/><line class="cls-2" x1="18.44" y1="47.13" x2="14.96" y2="53.2"/><line class="cls-2" x1="16.7" y1="54.2" x2="20.18" y2="48.12"/><line class="cls-2" x1="48.5" y1="14.94" x2="44.07" y2="9.53"/><line class="cls-2" x1="42.52" y1="10.79" x2="46.95" y2="16.21"/><line class="cls-2" x1="36.24" y1="13.1" x2="38.62" y2="19.68"/><line class="cls-2" x1="40.5" y1="19" x2="38.12" y2="12.42"/><line class="cls-2" x1="62.79" y1="61.18" x2="56.34" y2="58.45"/><line class="cls-2" x1="55.56" y1="60.29" x2="62" y2="63.03"/><line class="cls-2" x1="62.98" y1="43.22" x2="61.08" y2="49.96"/><line class="cls-2" x1="63" y1="50.5" x2="64.9" y2="43.77"/><line class="cls-2" x1="52.57" y1="37.87" x2="54.58" y2="44.58"/><line class="cls-2" x1="56.5" y1="44" x2="54.48" y2="37.3"/><line class="cls-2" x1="33.02" y1="32.58" x2="36.5" y2="26.5"/><line class="cls-2" x1="34.76" y1="25.51" x2="31.29" y2="31.58"/><line class="cls-2" x1="18.52" y1="25.79" x2="22.95" y2="31.21"/><line class="cls-2" x1="24.5" y1="29.94" x2="20.07" y2="24.53"/><line class="cls-2" x1="10.74" y1="27.6" x2="13.12" y2="34.18"/><line class="cls-2" x1="15" y1="33.5" x2="12.62" y2="26.92"/><line class="cls-2" x1="62.71" y1="25.56" x2="60.99" y2="32.35"/><line class="cls-2" x1="62.93" y1="32.84" x2="64.65" y2="26.05"/><line class="cls-2" x1="46.89" y1="29.19" x2="53.34" y2="31.93"/><line class="cls-2" x1="54.12" y1="30.09" x2="47.67" y2="27.35"/><line class="cls-2" x1="30.07" y1="59.37" x2="32.08" y2="66.08"/><line class="cls-2" x1="34" y1="65.5" x2="31.98" y2="58.8"/><line class="cls-2" x1="48.97" y1="60.45" x2="42.04" y2="61.42"/><line class="cls-2" x1="42.32" y1="63.4" x2="49.25" y2="62.43"/><line class="cls-2" x1="49.11" y1="48.23" x2="47.55" y2="55.05"/><line class="cls-2" x1="49.5" y1="55.5" x2="51.06" y2="48.68"/><line class="cls-2" x1="30.22" y1="45.3" x2="26.48" y2="51.22"/><line class="cls-2" x1="28.17" y1="52.29" x2="31.91" y2="46.37"/><line class="cls-2" x1="31.89" y1="36.7" x2="25.47" y2="39.5"/><line class="cls-2" x1="26.28" y1="41.34" x2="32.69" y2="38.54"/><line class="cls-2" x1="18.37" y1="42.31" x2="20.28" y2="35.58"/><line class="cls-2" x1="18.35" y1="35.03" x2="16.45" y2="41.77"/><line class="cls-2" x1="43.92" y1="38.92" x2="41.9" y2="32.22"/><line class="cls-2" x1="39.98" y1="32.8" x2="42" y2="39.5"/><line class="cls-2" x1="30.2" y1="15.76" x2="24.61" y2="19.97"/><line class="cls-2" x1="25.82" y1="21.57" x2="31.41" y2="17.36"/><line class="cls-2" x1="20.94" y1="15.94" x2="18.99" y2="9.22"/><line class="cls-2" x1="17.07" y1="9.77" x2="19.02" y2="16.5"/><line class="cls-2" x1="10.4" y1="9.42" x2="9.99" y2="16.41"/><line class="cls-2" x1="11.99" y1="16.53" x2="12.39" y2="9.54"/><line class="cls-2" x1="23.25" y1="57.28" x2="19" y2="62.84"/><line class="cls-2" x1="20.58" y1="64.05" x2="24.84" y2="58.49"/><line class="cls-2" x1="15.46" y1="61.69" x2="10.61" y2="56.64"/><line class="cls-2" x1="9.17" y1="58.03" x2="14.01" y2="63.08"/><line class="cls-2" x1="55.5" y1="24.5" x2="59.9" y2="19.06"/><line class="cls-2" x1="58.35" y1="17.8" x2="53.95" y2="23.24"/><line class="cls-2" x1="58.53" y1="14.33" x2="59.31" y2="7.38"/><line class="cls-2" x1="57.33" y1="7.15" x2="56.54" y2="14.11"/><line class="cls-2" x1="35.56" y1="49.29" x2="42" y2="52.03"/><line class="cls-2" x1="42.79" y1="50.18" x2="36.34" y2="47.45"/><line class="cls-2" x1="51.02" y1="-2.71" x2="55.45" y2="2.71"/><line class="cls-2" x1="57" y1="1.44" x2="52.57" y2="-3.97"/><line class="cls-2" x1="-2.79" y1="5.66" x2="3.38" y2="8.98"/><line class="cls-2" x1="4.32" y1="7.22" x2="-1.84" y2="3.9"/><line class="cls-2" x1="-2.74" y1="20.09" x2="2.56" y2="15.52"/><line class="cls-2" x1="1.25" y1="14" x2="-4.05" y2="18.58"/><line class="cls-2" x1="-0.27" y1="26.3" x2="6.25" y2="23.75"/><line class="cls-2" x1="5.52" y1="21.89" x2="-1" y2="24.44"/><line class="cls-2" x1="-3.07" y1="34.91" x2="3.75" y2="36.45"/><line class="cls-2" x1="4.2" y1="34.5" x2="-2.63" y2="32.96"/><line class="cls-2" x1="-3.04" y1="56.28" x2="3.75" y2="58"/><line class="cls-2" x1="4.24" y1="56.06" x2="-2.54" y2="54.34"/><line class="cls-2" x1="-2" y1="66.25" x2="4.65" y2="64.06"/><line class="cls-2" x1="4.02" y1="62.16" x2="-2.63" y2="64.35"/><line class="cls-2" x1="65.44" y1="-2.37" x2="61.96" y2="3.7"/><line class="cls-2" x1="63.7" y1="4.7" x2="67.18" y2="-1.38"/><line class="cls-2" x1="51.02" y1="-2.71" x2="55.45" y2="2.71"/><line class="cls-2" x1="57" y1="1.44" x2="52.57" y2="-3.97"/><line class="cls-2" x1="44.74" y1="-0.4" x2="47.12" y2="6.18"/><line class="cls-2" x1="49" y1="5.5" x2="46.62" y2="-1.08"/><line class="cls-2" x1="36.21" y1="-3.44" x2="34.49" y2="3.35"/><line class="cls-2" x1="36.43" y1="3.84" x2="38.15" y2="-2.95"/><line class="cls-2" x1="14.85" y1="-3.97" x2="12.95" y2="2.77"/><line class="cls-2" x1="14.87" y1="3.31" x2="16.78" y2="-3.42"/><line class="cls-2" x1="4.85" y1="-3.2" x2="6.87" y2="3.5"/><line class="cls-2" x1="8.79" y1="2.93" x2="6.77" y2="-3.78"/></pattern></defs><g id="Layer_2" data-name="Layer 2"><g id="glassware"><rect class="cls-4" width="300" height="300"/><g id="pint"><path class="cls-5" d="M150,233H116.35a2,2,0,0,1-2-1.84c-.9-11.88-6-78-9.86-101.16-.71-4.31-4-9-4-17,0-10,2.66-13.45,3-18,.43-5.87-.17-21.31-.41-26.92a2,2,0,0,1,2-2.08h89.82a2,2,0,0,1,2,2.08c-.24,5.61-.84,21-.41,26.92.34,4.55,3,8,3,18,0,8-3.29,12.69-4,17-3.84,23.19-9,89.28-9.86,101.16a2,2,0,0,1-2,1.84Z"/><path class="cls-6" d="M150,233H116.35a2,2,0,0,1-2-1.84c-.9-11.88-6-78-9.86-101.16-.71-4.31-4-9-4-17,0-10,2.66-13.45,3-18,.43-5.87-.17-21.31-.41-26.92a2,2,0,0,1,2-2.08h89.82a2,2,0,0,1,2,2.08c-.24,5.61-.84,21-.41,26.92.34,4.55,3,8,3,18,0,8-3.29,12.69-4,17-3.84,23.19-9,89.28-9.86,101.16a2,2,0,0,1-2,1.84Z"/></g></g></g></svg>