<svg xmlns="http://www.w3.org/2000/svg" viewBox="0 0 300 300"><defs><style>.cls-1,.cls-2{fill:#fff;}.cls-2{stroke:#363636;stroke-miterlimit:10;stroke-width:2px;}</style></defs><g id="Layer_2" data-name="Layer 2"><g id="glassware"><g id="snifter"><path class="cls-1" d="M0,0V300H300V0ZM188,143c-2,22.11-23.11,21.77-28,31-2.46,4.64-3.35,16.3-1,21,1,2,10.27,4.53,13.74,4.89a3.49,3.49,0,0,1,2.93,2.05c.87,2.13-.56,4.56-3.54,4.56H127.9c-3,0-4.41-2.43-3.54-4.56a3.49,3.49,0,0,1,2.93-2.05C130.76,199.53,140,197,141,195c2.35-4.7,1.46-16.36-1-21-4.89-9.23-26-8.89-28-31s11.5-49.5,11.5-49.5h52.94S190,121,188,143Z"/><path class="cls-2" d="M176.47,93.5H123.53S110,121,112,143s23.11,21.77,28,31c2.46,4.64,3.35,16.3,1,21-1,2-10.27,4.53-13.74,4.89a3.49,3.49,0,0,0-2.93,2.05c-.87,2.13.56,4.56,3.54,4.56h44.2c3,0,4.41-2.43,3.54-4.56a3.49,3.49,0,0,0-2.93-2.05C169.24,199.53,160,197,159,195c-2.35-4.7-1.46-16.36,1-21,4.89-9.23,26-8.89,28-31S176.47,93.5,176.47,93.5ZM184,143c-1.76,19.35-18.13,18.51-25.47,24.93a12,12,0,0,1-7.85,3.07h-1.3a12,12,0,0,1-7.85-3.07c-7.34-6.42-23.71-5.58-25.47-24.93-1.19-13,3.06-28,6.72-38h54.5C180.91,115,185.16,130,184,143Z"/></g></g></g></svg>