<svg xmlns="http://www.w3.org/2000/svg" viewBox="0 0 300 300"><defs><style>.cls-1,.cls-2{fill:#fff;}.cls-2{stroke:#363636;stroke-miterlimit:10;stroke-width:2px;}</style></defs><g id="Layer_2" data-name="Layer 2"><g id="glassware"><g id="stange"><path class="cls-1" d="M0,0V300H300V0ZM174.14,246.5c-6.39,2-17.9,1.92-23.89,2h-.5c-6-.08-17.5,0-23.89-2s-5.61-8.35-5.61-12l-1-182.33a.67.67,0,0,1,.67-.67h60.16a.67.67,0,0,1,.67.67l-1,182.33C179.75,238.15,180.45,244.52,174.14,246.5Z"/><path class="cls-2" d="M180.75,52.17a.67.67,0,0,0-.67-.67H119.92a.67.67,0,0,0-.67.67l1,182.33c0,3.65-.7,10,5.61,12s17.9,1.92,23.89,2h.5c6-.08,17.5,0,23.89-2s5.61-8.35,5.61-12ZM170.55,235.8c-5.5,1.7-15.42,1.63-20.58,1.7h-.44c-5.16-.07-15.08,0-20.59-1.7s-4.83-7.07-4.83-10.17l-.86-154.56a.56.56,0,0,1,.57-.57h51.85a.57.57,0,0,1,.58.57l-.86,154.56C175.39,228.73,176,234.13,170.55,235.8Z"/></g></g></g></svg>