<svg xmlns="http://www.w3.org/2000/svg" viewBox="0 0 300 300"><defs><style>.cls-1,.cls-2{fill:#fff;}.cls-2{stroke:#363636;stroke-miterlimit:10;stroke-width:2px;}</style></defs><g id="Layer_2" data-name="Layer 2"><g id="glassware"><g id="teku"><path class="cls-1" d="M0,0V300H300V0ZM195.17,127.75c-3,16-31,21-34,26-9.15,15.24-6.61,65.78-4,71,5,10,29,10,29,14v1.6a1,1,0,0,1-.24.66c-1.82,2.07-3.18,5.74-35.76,5.74h-.34c-32.58,0-33.94-3.67-35.76-5.74a1,1,0,0,1-.24-.66v-1.6c0-4,24-4,29-14,2.61-5.22,5.15-55.76-4-71-3-5-31-10-34-26-1.07-5.73,17-63,17-66,0-2.25-3-8.5-3-8.5h62.34s-3,6.25-3,8.5C178.17,64.75,196.24,122,195.17,127.75Z"/><path class="cls-2" d="M178.17,61.75c0-2.25,3-8.5,3-8.5H118.83s3,6.25,3,8.5c0,3-18.07,60.27-17,66,3,16,31,21,34,26,9.15,15.24,6.61,65.78,4,71-5,10-29,10-29,14v1.6a1,1,0,0,0,.24.66c1.82,2.07,3.18,5.74,35.76,5.74h.34c32.58,0,33.94-3.67,35.76-5.74a1,1,0,0,0,.24-.66v-1.6c0-4-24-4-29-14-2.61-5.22-5.15-55.76,4-71,3-5,31-10,34-26C196.24,122,178.17,64.75,178.17,61.75Zm12,66c-2.68,14.3-23.2,15.82-31.57,23.11a12.06,12.06,0,0,1-7.94,2.89h-.87a12.79,12.79,0,0,1-8.43-3.32c-7.87-6.93-28.9-8.67-31.53-22.68-.91-4.83,11.81-46.32,15.81-61h48.72C178.36,81.43,191.07,122.92,190.17,127.75Z"/></g></g></g></svg>