<svg xmlns="http://www.w3.org/2000/svg" viewBox="0 0 300 300"><defs><style>.cls-1,.cls-2{fill:#fff;}.cls-2{stroke:#363636;stroke-miterlimit:10;stroke-width:2px;}</style></defs><g id="Layer_2" data-name="Layer 2"><g id="glassware"><g id="tulip"><path class="cls-1" d="M0,0V300H300V0ZM194.36,145.5c-7.17,33-34,33-37,39-3.48,7-2.31,29.57,1,31s21,4,21.77,4.73c6.23,2.27,4.23,9.27-2.6,9.27H122.47c-6.83,0-8.83-7-2.6-9.27.77-.73,18.55-3.34,21.77-4.73s4.48-24,1-31c-3-6-29.83-6-37-39-5-23,13-39,13-49s-5-26-5-26h72.72s-5,16-5,26S199.36,122.5,194.36,145.5Z"/><path class="cls-2" d="M194.36,145.5c5-23-13-39-13-49s5-26,5-26H113.64s5,16,5,26-18,26-13,49c7.17,33,34,33,37,39,3.48,7,2.31,29.57-1,31s-21,4-21.77,4.73c-6.23,2.27-4.23,9.27,2.6,9.27h55.06c6.83,0,8.83-7,2.6-9.27-.77-.73-18.55-3.34-21.77-4.73s-4.48-24-1-31C160.36,178.5,187.19,178.46,194.36,145.5ZM150,177.5c-3.36,0-33.19,1-40.36-32-5-23,13-39,13-49a67.69,67.69,0,0,0-1.66-13h58a67.69,67.69,0,0,0-1.66,13c0,10,18,26,13,49C183.19,178.46,152.64,177.5,150,177.5Z"/></g></g></g></svg>