<svg xmlns="http://www.w3.org/2000/svg" viewBox="0 0 300 300"><defs><style>.cls-1,.cls-2{fill:#fff;}.cls-2{stroke:#363636;stroke-miterlimit:10;stroke-width:2px;}</style></defs><g id="Layer_2" data-name="Layer 2"><g id="glassware"><g id="weizen"><path class="cls-1" d="M0,0V300H300V0ZM172,188c.6,10,5.89,33.05,9.24,46.89A9,9,0,0,1,172.49,246h-45a9,9,0,0,1-8.75-11.11C122.11,221.05,127.4,198,128,188c3-50-16-50-16-95.6C112,73,118,54,118,54h64s6,19,6,38.4C188,138,169,138,172,188Z"/><path class="cls-2" d="M172,188c-3-50,16-50,16-95.6C188,73,182,54,182,54H118s-6,19-6,38.4c0,45.6,19,45.6,16,95.6-.6,10-5.89,33.05-9.24,46.89A9,9,0,0,0,127.51,246h45a9,9,0,0,0,8.75-11.11C177.89,221.05,172.6,198,172,188Zm-3.14,38H131.14a5,5,0,0,1-4.87-6.1c2.69-12,5.32-25,5.73-31.9,3-50-16-50-16-95.6A119.21,119.21,0,0,1,117.23,76h65.54A119.21,119.21,0,0,1,184,92.4c0,45.6-19,45.6-16,95.6.41,6.88,3,19.93,5.73,31.9A5,5,0,0,1,168.86,226Z"/></g></g></g></svg>